<?xml version="1.0" encoding="utf-8"?>
<svg viewBox="0 0 500 500" xmlns="http://www.w3.org/2000/svg">
  <circle cx="250" cy="250" r="250" fill="white"/>
  <path fill="black" d="M 354.813 170.01 C 353.412 168.939 351.57 168.631 349.9 169.19 C 334.663 174.265 323.555 187.256 320.912 203.092 C 317.822 221.592 323.662 233.643 332.008 239.194 C 322.619 273.965 325.589 310.182 339.507 342.049 L 283.979 286.52 C 288.234 281.753 292.2 275.412 296.225 267.024 C 313.326 231.444 304.794 191.714 274.995 168.168 L 253.414 151.116 C 249.382 147.931 245.784 145.19 242.607 142.787 C 223.181 128.021 219.677 125.358 217.237 94.545 C 217.064 92.345 215.567 90.492 213.453 89.863 C 211.349 89.236 209.082 89.959 207.73 91.708 C 206.766 92.953 201.873 100.277 193.746 112.513 C 193.332 113.132 192.947 113.719 192.588 114.25 C 182.013 103.839 165.858 101.656 151.883 109.184 C 150.505 109.927 149.587 111.267 149.202 112.793 C 148.449 115.708 151.333 118.555 151.333 118.555 C 159.12 128.418 159.141 144.515 151.518 156.509 C 135.334 164.451 118.514 167.473 105.631 169.778 C 91.329 172.345 81.879 174.034 79.98 181.619 C 78.358 188.058 83.202 194.733 98.421 206.876 C 95.332 209.064 91.85 211.566 88.81 213.754 C 84.166 217.104 80.153 219.999 81.254 224.623 C 82.276 228.954 86.502 229.631 90.981 230.356 C 99.956 231.791 118.61 234.802 136.249 257.115 L 158.235 284.936 C 174.476 305.492 198.746 316.349 224.802 314.719 C 241.284 313.685 263.162 303.677 276.133 293.718 L 308.876 326.473 C 291.679 321.531 273.518 321.957 255.151 327.862 C 229.675 336.056 205.55 354.362 187.223 379.405 C 185.825 381.315 185.863 383.929 187.31 385.803 C 188.758 387.675 191.268 388.37 193.476 387.49 C 258.559 361.753 330.118 365.644 380.22 397.635 C 382.345 398.995 385.096 398.666 386.842 396.919 C 386.978 396.784 387.111 396.639 387.226 396.486 C 388.935 394.372 388.762 391.312 386.842 389.392 L 379.257 381.807 C 342.914 345.416 328.89 292.513 342.083 242.677 C 348.163 243.122 354.756 240.894 360.215 235.422 C 365.282 230.356 369.385 222.518 371.229 211.487 C 373.872 195.652 367.58 179.757 354.813 170.01 Z M 208.213 109.964 C 211.476 131.632 218.065 137.498 236.171 151.249 C 239.306 153.634 242.868 156.336 246.814 159.463 L 268.403 176.515 C 294.199 196.905 301.523 231.426 286.641 262.421 C 282.174 271.715 277.775 278.278 272.89 282.438 C 281.749 247.367 275.467 209.866 255.598 182.305 C 254.544 180.837 252.5 180.51 251.032 181.561 C 249.564 182.624 249.229 184.67 250.289 186.135 C 270.206 213.766 275.62 252.057 264.804 287.001 C 259.246 288.737 252.914 288.217 245.242 285.719 C 234.53 282.245 223.276 275.16 214.736 268.183 C 198.552 237.717 196.719 198.873 210.335 167.549 C 211.059 165.89 210.298 163.958 208.638 163.246 C 206.977 162.522 205.049 163.284 204.334 164.943 C 196.682 182.545 193.439 202.426 194.962 222.44 C 195.842 233.875 198.233 245.051 202.018 255.572 C 173.77 220.947 172.053 163.602 199.297 123.38 C 199.635 122.877 206.091 113.161 208.213 109.964 Z M 162.587 116.247 C 171.552 113.728 180.66 116.346 186.645 123.486 C 184.829 126.545 183.162 129.68 181.615 132.905 C 177.024 138.54 171.995 143.25 166.727 147.225 C 169.15 136.484 167.777 125.242 162.587 116.247 Z M 90.526 184.36 C 92.967 182.855 100.97 181.428 107.513 180.249 C 120.578 177.913 138.934 174.613 156.874 165.678 C 157.355 165.514 157.818 165.282 158.235 164.984 C 163.388 162.329 168.484 159.202 173.394 155.476 C 169.94 168.756 168.559 182.747 169.427 196.818 C 169.659 200.524 170.035 204.172 170.567 207.761 L 165.907 204.085 C 147.358 189.426 127.199 188.211 107.541 200.524 L 106.053 199.357 C 94.137 189.94 91.222 185.887 90.526 184.36 Z M 166.581 278.336 L 144.598 250.523 C 127.246 228.56 108.39 222.829 97.408 220.674 C 104.337 215.695 111.623 210.553 112.406 210.04 C 128.395 199.667 144.173 200.466 159.315 212.434 L 174.1 224.119 C 179.184 241.722 188.072 257.289 200.185 269.399 C 208.974 278.192 225.198 290.399 241.961 295.843 C 244.092 296.538 246.168 297.087 248.187 297.522 C 239.923 301.083 231.278 303.648 224.144 304.093 C 201.612 305.5 180.631 296.113 166.581 278.336 Z M 207.973 371.124 C 239.895 337.512 288.127 318.549 331.611 349.208 L 337.153 354.738 C 316.036 344.799 291.853 338.873 263.316 345.888 C 261.561 346.322 260.49 348.099 260.924 349.853 C 261.359 351.611 263.125 352.682 264.879 352.249 C 300.315 343.534 329.026 356.31 353.395 370.988 L 355.922 373.519 C 311.954 356.426 258.77 355.405 207.973 371.124 Z M 360.736 209.742 C 358.036 225.943 349.235 233.192 341.947 231.976 C 334.663 230.761 328.699 221.041 331.4 204.838 C 332.017 201.131 333.262 197.629 335.019 194.444 C 339.671 200.196 343.126 206.856 345.103 213.986 C 345.595 215.734 347.402 216.756 349.139 216.265 C 349.698 216.111 350.19 215.822 350.574 215.433 C 351.385 214.623 351.744 213.419 351.414 212.24 C 349.023 203.622 344.726 195.642 338.89 188.877 C 339.4 188.289 339.933 187.719 340.482 187.168 C 343.348 184.302 346.753 181.967 350.566 180.308 C 358.702 187.727 362.573 198.749 360.736 209.742 Z M 360.736 209.742"/>
</svg>
